[center]
[img]http://img17.imageshack.us/img17/4317/awakeningunecm8.jpg[/img]

The.Awakening.2011.DVDRip.XviD.AC3-5.1.Une-CM8


Source: DVDR ripperschoice Thx m8

 
http://www.imdb.com/title/tt1687901/


General
Complete name                    : The.Awakening.2011.DVDRip.XviD.AC3-5.1.Une-CM8.avi
Format                           : AVI
Format/Info                      : Audio Video Interleave
File size                        : 1.16 GiB
Duration                         : 1h 42mn
Overall bit rate                 : 1 630 Kbps
Writing application              : VirtualDubMod 1.5.4.1 (build 2178/release)
Writing library                  : VirtualDubMod build 2178/release

Video
ID                               : 0
Format                           : MPEG-4 Visual
Format profile                   : Advanced Simple@L5
Format settings, BVOP            : No
Format settings, QPel            : No
Format settings, GMC             : No warppoints
Format settings, Matrix          : Custom
Codec ID                         : XVID
Codec ID/Hint                    : XviD
Duration                         : 1h 42mn
Bit rate                         : 1 175 Kbps
Width                            : 720 pixels
Height                           : 304 pixels
Display aspect ratio             : 2.35:1
Frame rate                       : 25.000 fps
Color space                      : YUV
Chroma subsampling               : 4:2:0
Bit depth                        : 8 bits
Scan type                        : Progressive
Compression mode                 : Lossy
Bits/(Pixel*Frame)               : 0.215
Stream size                      : 859 MiB (72%)
Writing library                  : XviD 1.2.1 (UTC 2008-12-04)

Audio
ID                               : 1
Format                           : AC-3
Format/Info                      : Audio Coding 3
Mode extension                   : CM (complete main)
Codec ID                         : 2000
Duration                         : 1h 42mn
Bit rate mode                    : Constant
Bit rate                         : 448 Kbps
Channel(s)                       : 6 channels
Channel positions                : Front: L C R, Side: L R, LFE
Sampling rate                    : 48.0 KHz
Bit depth                        : 16 bits
Compression mode                 : Lossy
Stream size                      : 328 MiB (27%)
Alignment                        : Split accross interleaves
Interleave, duration             : 96 ms (2.40 video frames)
Interleave, preload duration     : 96 ms



1921 England is overwhelmed by the loss and grief of World War I. Hoax exposer Florence Cathcart visits 
a boarding school to explain sightings of a child ghost. Everything she knew in unravels as the 
'missing' begin to show themselves. 


Rebecca Hall	... Florence Cathcart
Dominic West	... Robert Mallory
Imelda Staunton	... Maud Hill
Lucy Cohu	... Constance Strickland
John Shrapnel	... Reverend Hugh Purslow

[img]http://img834.imageshack.us/img834/2295/vlcsnap00001pk.png[/img]
[img]http://img254.imageshack.us/img254/3528/vlcsnap00002iy.png[/img]
[img]http://img706.imageshack.us/img706/6133/vlcsnap00003ab.png[/img]
[img]http://img836.imageshack.us/img836/1654/vlcsnap00005fq.png[/img]
[img]http://img221.imageshack.us/img221/2024/vlcsnap00006nq.png[/img]
[img]http://img269.imageshack.us/img269/9219/vlcsnap00007yl.png[/img][/center]